<?xml version="1.0" standalone="no"?>
<!DOCTYPE svg PUBLIC "-//W3C//DTD SVG 20010904//EN"
 "http://www.w3.org/TR/2001/REC-SVG-20010904/DTD/svg10.dtd">
<svg version="1.0" xmlns="http://www.w3.org/2000/svg"
 width="256.000000pt" height="256.000000pt" viewBox="0 0 256.000000 256.000000"
 preserveAspectRatio="xMidYMid meet">

<g transform="translate(0.000000,256.000000) scale(0.100000,-0.100000)"
fill="#000000" stroke="none">
<path d="M630 2545 c-246 -51 -443 -205 -551 -430 -76 -158 -74 -135 -74 -835
0 -700 -2 -677 74 -835 78 -163 194 -281 356 -361 166 -82 139 -79 845 -79
700 0 677 -2 835 74 163 78 281 194 361 356 82 166 79 139 79 845 0 700 2 677
-74 835 -78 163 -195 281 -356 361 -166 81 -133 78 -820 80 -480 2 -624 0
-675 -11z m766 -546 c262 -48 490 -265 550 -524 20 -90 20 -231 -1 -320 -20
-89 -82 -215 -135 -279 l-41 -50 98 -98 98 -98 -433 0 -433 0 -70 30 c-262
111 -417 312 -450 583 -37 296 145 602 425 715 120 49 266 64 392 41z"/>
<path d="M1149 1696 c-116 -44 -195 -115 -243 -216 -28 -59 -31 -74 -31 -165
0 -92 3 -106 32 -168 98 -206 338 -290 540 -188 78 39 164 131 194 208 33 82
33 214 0 296 -32 81 -115 168 -199 209 -59 29 -77 33 -162 35 -61 2 -108 -2
-131 -11z"/>
</g>
</svg>
